<mxfile host="app.diagrams.net" modified="2023-04-04T13:21:57.446Z" agent="Mozilla/5.0 (X11; Linux x86_64) AppleWebKit/537.36 (KHTML, like Gecko) Chrome/107.0.0.0 Safari/537.36 Edg/107.0.1418.62" etag="znSJKKiutiaqU2NKFSDL" version="21.1.4" type="github">
  <diagram name="Page-1" id="pfcniJRLq6g_gprmVm_X">
    <mxGraphModel dx="3718" dy="2664" grid="1" gridSize="10" guides="1" tooltips="1" connect="1" arrows="1" fold="1" page="1" pageScale="1" pageWidth="850" pageHeight="1100" math="0" shadow="0">
      <root>
        <mxCell id="0" />
        <mxCell id="1" parent="0" />
        <mxCell id="XPb6b2bPDCDjQBKjdTwz-22" value="" style="group" parent="1" vertex="1" connectable="0">
          <mxGeometry x="100" y="350" width="520" height="330" as="geometry" />
        </mxCell>
        <mxCell id="ihcnoo7ahmhh9mSnd2Sj-3" value="" style="rounded=0;whiteSpace=wrap;html=1;fillColor=#ffe6cc;strokeColor=none;" vertex="1" parent="XPb6b2bPDCDjQBKjdTwz-22">
          <mxGeometry x="-160" y="-280" width="680" height="610" as="geometry" />
        </mxCell>
        <mxCell id="XPb6b2bPDCDjQBKjdTwz-11" value="" style="group;fillColor=#d5e8d4;strokeColor=#82b366;fillStyle=solid;container=0;" parent="XPb6b2bPDCDjQBKjdTwz-22" vertex="1" connectable="0">
          <mxGeometry width="360" height="190" as="geometry" />
        </mxCell>
        <mxCell id="XPb6b2bPDCDjQBKjdTwz-1" value="MCU" style="rounded=0;whiteSpace=wrap;html=1;shadow=0;glass=0;" parent="XPb6b2bPDCDjQBKjdTwz-22" vertex="1">
          <mxGeometry x="40" y="30" width="140" height="130" as="geometry" />
        </mxCell>
        <mxCell id="XPb6b2bPDCDjQBKjdTwz-5" value="" style="rounded=0;whiteSpace=wrap;html=1;fillStyle=auto;fillColor=none;" parent="XPb6b2bPDCDjQBKjdTwz-22" vertex="1">
          <mxGeometry width="360" height="190" as="geometry" />
        </mxCell>
        <mxCell id="XPb6b2bPDCDjQBKjdTwz-4" value="STM32代码" style="whiteSpace=wrap;html=1;aspect=fixed;rounded=1;" parent="XPb6b2bPDCDjQBKjdTwz-22" vertex="1">
          <mxGeometry x="190" y="30" width="130" height="130" as="geometry" />
        </mxCell>
        <mxCell id="ihcnoo7ahmhh9mSnd2Sj-4" value="&lt;font color=&quot;#c46512&quot; style=&quot;font-size: 31px;&quot;&gt;开发板&lt;/font&gt;" style="text;html=1;strokeColor=none;fillColor=none;align=center;verticalAlign=middle;whiteSpace=wrap;rounded=0;" vertex="1" parent="XPb6b2bPDCDjQBKjdTwz-22">
          <mxGeometry x="115" y="240" width="130" height="60" as="geometry" />
        </mxCell>
        <mxCell id="XPb6b2bPDCDjQBKjdTwz-32" style="edgeStyle=orthogonalEdgeStyle;rounded=0;orthogonalLoop=1;jettySize=auto;html=1;exitX=0;exitY=0.5;exitDx=0;exitDy=0;entryX=1;entryY=0.5;entryDx=0;entryDy=0;startArrow=classic;startFill=1;" parent="1" source="XPb6b2bPDCDjQBKjdTwz-12" target="XPb6b2bPDCDjQBKjdTwz-5" edge="1">
          <mxGeometry relative="1" as="geometry" />
        </mxCell>
        <mxCell id="XPb6b2bPDCDjQBKjdTwz-33" style="edgeStyle=orthogonalEdgeStyle;rounded=0;orthogonalLoop=1;jettySize=auto;html=1;entryX=0;entryY=0.5;entryDx=0;entryDy=0;startArrow=classic;startFill=1;" parent="1" source="XPb6b2bPDCDjQBKjdTwz-12" target="XPb6b2bPDCDjQBKjdTwz-19" edge="1">
          <mxGeometry relative="1" as="geometry" />
        </mxCell>
        <mxCell id="XPb6b2bPDCDjQBKjdTwz-12" value="CAN" style="whiteSpace=wrap;html=1;aspect=fixed;" parent="1" vertex="1">
          <mxGeometry x="500" y="400" width="90" height="90" as="geometry" />
        </mxCell>
        <mxCell id="1EyvT61QuPQEyxA0M2qB-9" style="edgeStyle=orthogonalEdgeStyle;rounded=0;orthogonalLoop=1;jettySize=auto;html=1;entryX=1;entryY=0.5;entryDx=0;entryDy=0;startArrow=classic;startFill=1;endArrow=none;endFill=0;" parent="1" source="XPb6b2bPDCDjQBKjdTwz-13" target="XPb6b2bPDCDjQBKjdTwz-21" edge="1">
          <mxGeometry relative="1" as="geometry" />
        </mxCell>
        <mxCell id="XPb6b2bPDCDjQBKjdTwz-13" value="（可能的）&lt;br&gt;协议芯片" style="whiteSpace=wrap;html=1;aspect=fixed;dashed=1;" parent="1" vertex="1">
          <mxGeometry x="-30" y="400" width="90" height="90" as="geometry" />
        </mxCell>
        <mxCell id="XPb6b2bPDCDjQBKjdTwz-20" value="" style="group" parent="1" vertex="1" connectable="0">
          <mxGeometry x="640" y="380" width="230" height="130" as="geometry" />
        </mxCell>
        <mxCell id="XPb6b2bPDCDjQBKjdTwz-19" value="" style="rounded=0;whiteSpace=wrap;html=1;fillColor=#e1d5e7;strokeColor=#9673a6;" parent="XPb6b2bPDCDjQBKjdTwz-20" vertex="1">
          <mxGeometry width="230" height="130" as="geometry" />
        </mxCell>
        <mxCell id="XPb6b2bPDCDjQBKjdTwz-14" value="电调" style="whiteSpace=wrap;html=1;aspect=fixed;" parent="XPb6b2bPDCDjQBKjdTwz-20" vertex="1">
          <mxGeometry x="20" y="20" width="90" height="90" as="geometry" />
        </mxCell>
        <mxCell id="XPb6b2bPDCDjQBKjdTwz-15" value="轮子" style="whiteSpace=wrap;html=1;aspect=fixed;" parent="XPb6b2bPDCDjQBKjdTwz-20" vertex="1">
          <mxGeometry x="120" y="20" width="90" height="90" as="geometry" />
        </mxCell>
        <mxCell id="XPb6b2bPDCDjQBKjdTwz-21" value="红外接收器" style="whiteSpace=wrap;html=1;aspect=fixed;" parent="1" vertex="1">
          <mxGeometry x="-210" y="310" width="90" height="90" as="geometry" />
        </mxCell>
        <mxCell id="XPb6b2bPDCDjQBKjdTwz-25" value="" style="group" parent="1" vertex="1" connectable="0">
          <mxGeometry x="190" y="100" width="180" height="90" as="geometry" />
        </mxCell>
        <mxCell id="XPb6b2bPDCDjQBKjdTwz-9" value="" style="rounded=0;whiteSpace=wrap;html=1;fillColor=#f8cecc;container=0;strokeColor=#b85450;fillStyle=solid;gradientColor=none;" parent="XPb6b2bPDCDjQBKjdTwz-25" vertex="1">
          <mxGeometry width="180" height="90" as="geometry" />
        </mxCell>
        <mxCell id="XPb6b2bPDCDjQBKjdTwz-2" value="WIFI 模块" style="whiteSpace=wrap;html=1;aspect=fixed;container=0;" parent="XPb6b2bPDCDjQBKjdTwz-25" vertex="1">
          <mxGeometry x="15" y="10" width="70" height="70" as="geometry" />
        </mxCell>
        <mxCell id="XPb6b2bPDCDjQBKjdTwz-8" value="&amp;nbsp;WIFI 代码" style="whiteSpace=wrap;html=1;aspect=fixed;container=0;rounded=1;" parent="XPb6b2bPDCDjQBKjdTwz-25" vertex="1">
          <mxGeometry x="100" y="10" width="70" height="70" as="geometry" />
        </mxCell>
        <mxCell id="XPb6b2bPDCDjQBKjdTwz-26" value="" style="group" parent="1" vertex="1" connectable="0">
          <mxGeometry x="-320" y="80" width="180" height="90" as="geometry" />
        </mxCell>
        <mxCell id="XPb6b2bPDCDjQBKjdTwz-16" value="" style="rounded=0;whiteSpace=wrap;html=1;fillColor=#fff2cc;container=0;strokeColor=#d6b656;fillStyle=solid;" parent="XPb6b2bPDCDjQBKjdTwz-26" vertex="1">
          <mxGeometry width="180" height="90" as="geometry" />
        </mxCell>
        <mxCell id="XPb6b2bPDCDjQBKjdTwz-17" value="移动设备" style="whiteSpace=wrap;html=1;aspect=fixed;container=0;" parent="XPb6b2bPDCDjQBKjdTwz-26" vertex="1">
          <mxGeometry x="15" y="10" width="70" height="70" as="geometry" />
        </mxCell>
        <mxCell id="XPb6b2bPDCDjQBKjdTwz-18" value="APP" style="whiteSpace=wrap;html=1;aspect=fixed;container=0;rounded=1;" parent="XPb6b2bPDCDjQBKjdTwz-26" vertex="1">
          <mxGeometry x="100" y="10" width="70" height="70" as="geometry" />
        </mxCell>
        <mxCell id="XPb6b2bPDCDjQBKjdTwz-34" style="edgeStyle=orthogonalEdgeStyle;rounded=0;orthogonalLoop=1;jettySize=auto;html=1;entryX=1;entryY=0.5;entryDx=0;entryDy=0;startArrow=classic;startFill=1;" parent="1" source="XPb6b2bPDCDjQBKjdTwz-5" target="XPb6b2bPDCDjQBKjdTwz-13" edge="1">
          <mxGeometry relative="1" as="geometry" />
        </mxCell>
        <mxCell id="1EyvT61QuPQEyxA0M2qB-2" style="edgeStyle=orthogonalEdgeStyle;rounded=0;orthogonalLoop=1;jettySize=auto;html=1;entryX=0.5;entryY=0;entryDx=0;entryDy=0;startArrow=classic;startFill=1;" parent="1" source="1EyvT61QuPQEyxA0M2qB-1" target="XPb6b2bPDCDjQBKjdTwz-5" edge="1">
          <mxGeometry relative="1" as="geometry" />
        </mxCell>
        <mxCell id="1EyvT61QuPQEyxA0M2qB-1" value="（可能的）&lt;br&gt;协议芯片" style="whiteSpace=wrap;html=1;aspect=fixed;dashed=1;" parent="1" vertex="1">
          <mxGeometry x="235" y="230" width="90" height="90" as="geometry" />
        </mxCell>
        <mxCell id="1EyvT61QuPQEyxA0M2qB-3" style="edgeStyle=orthogonalEdgeStyle;rounded=0;orthogonalLoop=1;jettySize=auto;html=1;entryX=0.5;entryY=0;entryDx=0;entryDy=0;startArrow=classic;startFill=1;" parent="1" source="XPb6b2bPDCDjQBKjdTwz-9" target="1EyvT61QuPQEyxA0M2qB-1" edge="1">
          <mxGeometry relative="1" as="geometry" />
        </mxCell>
        <mxCell id="1EyvT61QuPQEyxA0M2qB-11" style="edgeStyle=orthogonalEdgeStyle;rounded=0;orthogonalLoop=1;jettySize=auto;html=1;entryX=0.13;entryY=0.77;entryDx=0;entryDy=0;entryPerimeter=0;startArrow=classic;startFill=1;" parent="1" source="XPb6b2bPDCDjQBKjdTwz-16" target="1EyvT61QuPQEyxA0M2qB-4" edge="1">
          <mxGeometry relative="1" as="geometry" />
        </mxCell>
        <mxCell id="1EyvT61QuPQEyxA0M2qB-12" style="edgeStyle=orthogonalEdgeStyle;rounded=0;orthogonalLoop=1;jettySize=auto;html=1;entryX=0.8;entryY=0.8;entryDx=0;entryDy=0;entryPerimeter=0;startArrow=classic;startFill=1;" parent="1" source="XPb6b2bPDCDjQBKjdTwz-9" target="1EyvT61QuPQEyxA0M2qB-4" edge="1">
          <mxGeometry relative="1" as="geometry" />
        </mxCell>
        <mxCell id="1EyvT61QuPQEyxA0M2qB-15" style="edgeStyle=orthogonalEdgeStyle;rounded=0;orthogonalLoop=1;jettySize=auto;html=1;entryX=0;entryY=0.25;entryDx=0;entryDy=0;" parent="1" source="XPb6b2bPDCDjQBKjdTwz-16" target="XPb6b2bPDCDjQBKjdTwz-21" edge="1">
          <mxGeometry relative="1" as="geometry" />
        </mxCell>
        <mxCell id="1EyvT61QuPQEyxA0M2qB-17" style="edgeStyle=orthogonalEdgeStyle;rounded=0;orthogonalLoop=1;jettySize=auto;html=1;entryX=-0.011;entryY=0.672;entryDx=0;entryDy=0;entryPerimeter=0;" parent="1" source="1EyvT61QuPQEyxA0M2qB-16" target="XPb6b2bPDCDjQBKjdTwz-21" edge="1">
          <mxGeometry relative="1" as="geometry" />
        </mxCell>
        <mxCell id="1EyvT61QuPQEyxA0M2qB-16" value="遥控器" style="rounded=0;whiteSpace=wrap;html=1;" parent="1" vertex="1">
          <mxGeometry x="-370" y="340" width="120" height="60" as="geometry" />
        </mxCell>
        <mxCell id="1EyvT61QuPQEyxA0M2qB-21" style="edgeStyle=orthogonalEdgeStyle;rounded=0;orthogonalLoop=1;jettySize=auto;html=1;entryX=0;entryY=0.5;entryDx=0;entryDy=0;" parent="1" source="1EyvT61QuPQEyxA0M2qB-19" target="XPb6b2bPDCDjQBKjdTwz-13" edge="1">
          <mxGeometry relative="1" as="geometry" />
        </mxCell>
        <mxCell id="1EyvT61QuPQEyxA0M2qB-19" value="视觉、显示屏&lt;br&gt;等外设……" style="whiteSpace=wrap;html=1;aspect=fixed;" parent="1" vertex="1">
          <mxGeometry x="-210" y="430" width="90" height="90" as="geometry" />
        </mxCell>
        <mxCell id="1EyvT61QuPQEyxA0M2qB-25" value="&lt;h1 style=&quot;&quot;&gt;&lt;font style=&quot;font-size: 30px;&quot;&gt;机器人控制版 应用场景示例&lt;/font&gt;&lt;/h1&gt;&lt;p style=&quot;font-size: 20px;&quot;&gt;&lt;/p&gt;&lt;ul style=&quot;font-size: 20px;&quot;&gt;&lt;li style=&quot;&quot;&gt;&lt;font color=&quot;#cc0066&quot; style=&quot;font-size: 20px;&quot;&gt;[&lt;b style=&quot;&quot;&gt;MCU&lt;/b&gt;+CAN] 控制轮子移动&lt;/font&gt;&lt;/li&gt;&lt;ul style=&quot;&quot;&gt;&lt;li&gt;&lt;font style=&quot;font-size: 20px;&quot;&gt;STM32 CAN 驱动程序&lt;/font&gt;&lt;/li&gt;&lt;li&gt;&lt;font style=&quot;font-size: 20px;&quot;&gt;控制算法&lt;sup&gt;[1]&lt;/sup&gt;&lt;/font&gt;&lt;/li&gt;&lt;li&gt;&lt;font style=&quot;font-size: 20px;&quot;&gt;电调协议&lt;/font&gt;&lt;/li&gt;&lt;/ul&gt;&lt;li style=&quot;&quot;&gt;&lt;font color=&quot;#cc0066&quot; style=&quot;font-size: 20px;&quot;&gt;[&lt;b style=&quot;&quot;&gt;MCU&lt;/b&gt;+&lt;b style=&quot;&quot;&gt;WIFI&lt;/b&gt;+远程仓库] 自动联网更新代码&amp;nbsp;&lt;/font&gt;&lt;/li&gt;&lt;ul style=&quot;&quot;&gt;&lt;li&gt;&lt;font style=&quot;font-size: 20px;&quot;&gt;WIFI模块 电控程序&lt;/font&gt;&lt;/li&gt;&lt;li&gt;&lt;font style=&quot;font-size: 20px;&quot;&gt;STM32 WIFI通信交互程序&lt;/font&gt;&lt;/li&gt;&lt;li&gt;&lt;font style=&quot;font-size: 20px;&quot;&gt;STM32 Boot更新程序&lt;/font&gt;&lt;/li&gt;&lt;/ul&gt;&lt;li style=&quot;&quot;&gt;&lt;font style=&quot;font-size: 20px;&quot;&gt;[&lt;b&gt;MCU&lt;/b&gt;+CAN+红外+遥控器] 遥控器控制机器人&lt;sup&gt;[2]&lt;/sup&gt;&lt;/font&gt;&lt;/li&gt;&lt;ul style=&quot;&quot;&gt;&lt;li&gt;&lt;font style=&quot;font-size: 20px;&quot;&gt;STM32 红外接收器通信程序&lt;sup&gt;[3]&lt;/sup&gt;&lt;/font&gt;&lt;/li&gt;&lt;/ul&gt;&lt;li style=&quot;&quot;&gt;&lt;font style=&quot;font-size: 20px;&quot;&gt;[&lt;b&gt;MCU&lt;/b&gt;+CAN+红外+&lt;b&gt;移动设备&lt;/b&gt;] 手机控制机器人&lt;/font&gt;&lt;/li&gt;&lt;ul style=&quot;&quot;&gt;&lt;li&gt;&lt;font style=&quot;font-size: 20px;&quot;&gt;移动端APP 红外控制开发&lt;/font&gt;&lt;/li&gt;&lt;/ul&gt;&lt;li style=&quot;&quot;&gt;&lt;font color=&quot;#cc0066&quot; style=&quot;font-size: 20px;&quot;&gt;[&lt;b&gt;MCU&lt;/b&gt;+CAN+&lt;b&gt;WIFI&lt;/b&gt;+&lt;b&gt;移动设备&lt;/b&gt;] 远程控制机器人&lt;/font&gt;&lt;/li&gt;&lt;ul style=&quot;&quot;&gt;&lt;li&gt;&lt;font style=&quot;font-size: 20px;&quot;&gt;移动端APP WIFI通信应用&lt;/font&gt;&lt;/li&gt;&lt;/ul&gt;&lt;li style=&quot;&quot;&gt;&lt;font style=&quot;font-size: 20px;&quot;&gt;[&lt;b&gt;MCU&lt;/b&gt;+CAN+WIFI+&lt;b&gt;移动设备&lt;/b&gt;+视觉] 远程图像传输控制小车&lt;br&gt;&lt;/font&gt;&lt;/li&gt;&lt;ul style=&quot;&quot;&gt;&lt;li&gt;&lt;font style=&quot;font-size: 20px;&quot;&gt;STM32 摄像头获取数据&lt;/font&gt;&lt;/li&gt;&lt;/ul&gt;&lt;li style=&quot;&quot;&gt;&lt;font style=&quot;font-size: 20px;&quot;&gt;[&lt;b&gt;MCU&lt;/b&gt;+触摸屏] 触碰交互设置机器人&lt;/font&gt;&lt;/li&gt;&lt;ul style=&quot;&quot;&gt;&lt;li style=&quot;&quot;&gt;&lt;font style=&quot;font-size: 20px;&quot;&gt;嵌入式图形库&lt;/font&gt;&lt;/li&gt;&lt;li style=&quot;&quot;&gt;&lt;font style=&quot;font-size: 20px;&quot;&gt;简单嵌入式APP开发&lt;/font&gt;&lt;/li&gt;&lt;/ul&gt;&lt;/ul&gt;&lt;div&gt;&lt;span style=&quot;font-size: 20px;&quot;&gt;[1]比如PID&lt;/span&gt;&lt;/div&gt;&lt;div&gt;&lt;span style=&quot;font-size: 20px;&quot;&gt;[2]机器人队电路组入门作业&lt;/span&gt;&lt;/div&gt;&lt;div&gt;&lt;span style=&quot;font-size: 20px;&quot;&gt;[3]如果是大疆的红外接收器，则是DEBUS协议&lt;/span&gt;&lt;/div&gt;&lt;div&gt;&lt;span style=&quot;font-size: 20px;&quot;&gt;框图中&lt;b&gt;圆角矩形&lt;/b&gt;代表软件开发&lt;/span&gt;&lt;/div&gt;&lt;div&gt;&lt;span style=&quot;font-size: 20px;&quot;&gt;可以尝试碰瓷人工智能（比如简单的语音识别唤醒机器人）&lt;/span&gt;&lt;/div&gt;&lt;p&gt;&lt;/p&gt;" style="text;html=1;strokeColor=none;fillColor=none;spacing=5;spacingTop=-20;whiteSpace=wrap;overflow=hidden;rounded=0;" parent="1" vertex="1">
          <mxGeometry x="890" width="650" height="680" as="geometry" />
        </mxCell>
        <mxCell id="ihcnoo7ahmhh9mSnd2Sj-2" value="" style="group" vertex="1" connectable="0" parent="1">
          <mxGeometry x="-50" y="-200" width="250" height="170" as="geometry" />
        </mxCell>
        <mxCell id="1EyvT61QuPQEyxA0M2qB-4" value="互联网" style="ellipse;shape=cloud;whiteSpace=wrap;html=1;" parent="ihcnoo7ahmhh9mSnd2Sj-2" vertex="1">
          <mxGeometry width="250" height="170" as="geometry" />
        </mxCell>
        <mxCell id="1EyvT61QuPQEyxA0M2qB-10" value="&lt;font style=&quot;font-size: 15px;&quot;&gt;云端仓库&lt;/font&gt;" style="rounded=1;whiteSpace=wrap;html=1;" parent="ihcnoo7ahmhh9mSnd2Sj-2" vertex="1">
          <mxGeometry x="100" y="100" width="50" height="40" as="geometry" />
        </mxCell>
      </root>
    </mxGraphModel>
  </diagram>
</mxfile>
